<?xml version="1.0" encoding="UTF-8" standalone="no"?>
<svg version="1.1" xmlns="http://www.w3.org/2000/svg" xmlns:xlink="http://www.w3.org/1999/xlink" xmlns:i="http://ns.adobe.com/AdobeIllustrator/10.0/" width="1694" height="1703">
	<defs>
		<clipPath id="clip_dp_001" clipPathUnits="userSpaceOnUse" clip-rule="nonzero">
			<path d="M 0,0 L 1694,0 L 1694,1703 L 0,1703 Z " clip-rule="nonzero"/>
		</clipPath>
	</defs>
	<g id="dp_dp001" clip-path="url(#clip_dp_001)">
		<g id="clip" i:layer="yes">
			<path id="dp_path002" fill="#4d75b9" fill-rule="evenodd" stroke="none" stroke-width="0" d="M 1278.45,107.501 C 1421.8,107.501 1538,223.701 1538,367.04 C 1538,510.379 1421.8,626.579 1278.45,626.579 C 1135.09,626.579 1018.89,510.379 1018.89,367.04 C 1018.89,223.701 1135.09,107.501 1278.45,107.501 Z "/>
			<path id="dp_path003" fill="#4d75b9" fill-rule="evenodd" stroke="none" stroke-width="0" d="M 1269.25,1085.3 C 1412.61,1085.3 1528.81,1201.5 1528.81,1344.84 C 1528.81,1488.18 1412.61,1604.38 1269.25,1604.38 C 1125.9,1604.38 1009.7,1488.18 1009.7,1344.84 C 1009.7,1201.5 1125.9,1085.3 1269.25,1085.3 Z "/>
			<path id="dp_path004" fill="#4d75b9" fill-rule="evenodd" stroke="none" stroke-width="0" d="M 373.936,602.435 C 517.287,602.435 633.495,718.635 633.495,861.973 C 633.495,1005.31 517.287,1121.51 373.936,1121.51 C 230.585,1121.51 114.377,1005.31 114.377,861.973 C 114.377,718.635 230.585,602.435 373.936,602.435 Z "/>
			<path id="dp_path005" fill="#4d75b9" fill-rule="evenodd" stroke="none" stroke-width="0" d="M 548.567,856.7 C 725.021,1004.4 934.769,1125.49 1167.53,1228.17 L 1095.81,1347.67 C 901.551,1187.91 695.875,1062.16 476.851,976.199 Z "/>
			<path id="dp_path006" fill="#4d75b9" fill-rule="evenodd" stroke="none" stroke-width="0" d="M 496.641,712.929 C 711.413,630.319 919.069,505.679 1121.8,351.992 L 1191.49,472.688 C 957.529,565.017 747.772,683.831 566.324,833.624 Z "/>
		</g>
	</g>
</svg>